<svg width="24" height="24" viewBox="0 0 24 24" fill="none" xmlns="http://www.w3.org/2000/svg">
  <!-- Elegant flame shape -->
  <path d="M12 2C12 2 10 6 10 9C10 11 11 12 12 12C13 12 14 11 14 9C14 6 12 2 12 2Z" fill="#FF6B35" opacity="0.9"/>
  <path d="M12 6C12 6 10.5 8.5 10.5 10.5C10.5 12 11.2 13 12 13C12.8 13 13.5 12 13.5 10.5C13.5 8.5 12 6 12 6Z" fill="#FFA500" opacity="0.8"/>
  <path d="M12 9C12 9 11 10.5 11 11.5C11 12.3 11.4 13 12 13C12.6 13 13 12.3 13 11.5C13 10.5 12 9 12 9Z" fill="#FFD700" opacity="0.7"/>
  
  <!-- Glow effect -->
  <circle cx="12" cy="10" r="8" fill="url(#flameGlow)" opacity="0.15"/>
  
  <defs>
    <radialGradient id="flameGlow">
      <stop offset="0%" stop-color="#FF6B35"/>
      <stop offset="100%" stop-color="#FF6B35" stop-opacity="0"/>
    </radialGradient>
  </defs>
</svg>
