<svg width="80" height="100" viewBox="0 0 80 100" fill="none" xmlns="http://www.w3.org/2000/svg">
  <!-- Large elegant flame for prominent UI placement -->
  <path d="M40 10C40 10 30 25 30 40C30 55 33 70 40 70C47 70 50 55 50 40C50 25 40 10 40 10Z" fill="#FF6B35" opacity="0.95"/>
  <path d="M40 20C40 20 33 32 33 45C33 56 35 65 40 65C45 65 47 56 47 45C47 32 40 20 40 20Z" fill="#FF8C42" opacity="0.9"/>
  <path d="M40 30C40 30 36 40 36 50C36 57 37 62 40 62C43 62 44 57 44 50C44 40 40 30 40 30Z" fill="#FFA500" opacity="0.85"/>
  <path d="M40 40C40 40 38 46 38 52C38 56 38.5 59 40 59C41.5 59 42 56 42 52C42 46 40 40 40 40Z" fill="#FFD700" opacity="0.75"/>
  
  <!-- Glow effect -->
  <ellipse cx="40" cy="45" rx="25" ry="35" fill="url(#flameLargeGlow)" opacity="0.2"/>
  
  <defs>
    <radialGradient id="flameLargeGlow" cx="0.5" cy="0.5">
      <stop offset="0%" stop-color="#FF6B35"/>
      <stop offset="100%" stop-color="#FF6B35" stop-opacity="0"/>
    </radialGradient>
  </defs>
</svg>
